<svg width="16" height="18" viewBox="0 0 16 18" fill="none" xmlns="http://www.w3.org/2000/svg">
<path d="M8.76433 6.94091C8.54683 6.94091 8.36451 6.86419 8.21738 6.71073C8.07025 6.55728 7.99669 6.36713 7.99669 6.14028V4.53903H6.46141C6.24392 4.53903 6.0616 4.4623 5.91447 4.30885C5.76734 4.15539 5.69378 3.96525 5.69378 3.7384C5.69378 3.51156 5.76734 3.32141 5.91447 3.16795C6.0616 3.0145 6.24392 2.93777 6.46141 2.93777H7.99669V1.33652C7.99669 1.10967 8.07025 0.919523 8.21738 0.766069C8.36451 0.612616 8.54683 0.535889 8.76433 0.535889C8.98182 0.535889 9.16414 0.612616 9.31127 0.766069C9.4584 0.919523 9.53196 1.10967 9.53196 1.33652V2.93777H11.0672C11.2847 2.93777 11.467 3.0145 11.6142 3.16795C11.7613 3.32141 11.8349 3.51156 11.8349 3.7384C11.8349 3.96525 11.7613 4.15539 11.6142 4.30885C11.467 4.4623 11.2847 4.53903 11.0672 4.53903H9.53196V6.14028C9.53196 6.36713 9.4584 6.55728 9.31127 6.71073C9.16414 6.86419 8.98182 6.94091 8.76433 6.94091ZM4.92614 17.3491C4.50394 17.3491 4.14251 17.1923 3.84185 16.8787C3.54119 16.5651 3.39086 16.1882 3.39086 15.7478C3.39086 15.3075 3.54119 14.9305 3.84185 14.6169C4.14251 14.3034 4.50394 14.1466 4.92614 14.1466C5.34834 14.1466 5.70977 14.3034 6.01043 14.6169C6.31108 14.9305 6.46141 15.3075 6.46141 15.7478C6.46141 16.1882 6.31108 16.5651 6.01043 16.8787C5.70977 17.1923 5.34834 17.3491 4.92614 17.3491ZM12.6025 17.3491C12.1803 17.3491 11.8189 17.1923 11.5182 16.8787C11.2176 16.5651 11.0672 16.1882 11.0672 15.7478C11.0672 15.3075 11.2176 14.9305 11.5182 14.6169C11.8189 14.3034 12.1803 14.1466 12.6025 14.1466C13.0247 14.1466 13.3861 14.3034 13.6868 14.6169C13.9875 14.9305 14.1378 15.3075 14.1378 15.7478C14.1378 16.1882 13.9875 16.5651 13.6868 16.8787C13.3861 17.1923 13.0247 17.3491 12.6025 17.3491ZM4.92614 13.3459C4.33762 13.3459 3.89303 13.0824 3.59237 12.5553C3.29171 12.0282 3.28851 11.5045 3.58277 10.9841L4.61908 9.02254L1.85559 2.93777H1.08795C0.870453 2.93777 0.688139 2.86105 0.541008 2.70759C0.393878 2.55414 0.320312 2.36399 0.320312 2.13714C0.320312 1.9103 0.393878 1.72015 0.541008 1.5667C0.688139 1.41324 0.870453 1.33652 1.08795 1.33652H2.33536C2.47609 1.33652 2.61043 1.37655 2.73837 1.45661C2.86631 1.53667 2.96227 1.6501 3.02623 1.79688L6.11598 8.54217H11.4894L14.2337 3.3581C14.2977 3.22466 14.3905 3.12125 14.512 3.04786C14.6336 2.97447 14.7647 2.93777 14.9054 2.93777C15.1997 2.93777 15.4204 3.07121 15.5675 3.33809C15.7146 3.60496 15.7178 3.87184 15.5771 4.13871L12.8328 9.30276C12.6921 9.56964 12.5066 9.77647 12.2763 9.92325C12.046 10.07 11.7837 10.1434 11.4894 10.1434H5.77054L4.92614 11.7447H13.3702C13.5876 11.7447 13.77 11.8214 13.9171 11.9749C14.0642 12.1283 14.1378 12.3185 14.1378 12.5453C14.1378 12.7722 14.0642 12.9623 13.9171 13.1158C13.77 13.2692 13.5876 13.3459 13.3702 13.3459H4.92614Z" fill="#FF9910"/>
</svg>
