<svg width="20" height="20" viewBox="0 0 20 20" fill="none" xmlns="http://www.w3.org/2000/svg">
<g clip-path="url(#clip0_6759_51049)">
<path d="M10.0001 1.66663C6.77508 1.66663 4.16675 4.27496 4.16675 7.49996C4.16675 10.975 7.85008 15.7666 9.36675 17.5916C9.70008 17.9916 10.3084 17.9916 10.6417 17.5916C12.1501 15.7666 15.8334 10.975 15.8334 7.49996C15.8334 4.27496 13.2251 1.66663 10.0001 1.66663ZM10.0001 9.58329C8.85008 9.58329 7.91675 8.64996 7.91675 7.49996C7.91675 6.34996 8.85008 5.41663 10.0001 5.41663C11.1501 5.41663 12.0834 6.34996 12.0834 7.49996C12.0834 8.64996 11.1501 9.58329 10.0001 9.58329Z" fill="black"/>
</g>
<defs>
<clipPath id="clip0_6759_51049">
<rect width="20" height="20" fill="white"/>
</clipPath>
</defs>
</svg>
