<svg width="103" height="92" viewBox="0 0 103 92" fill="none" xmlns="http://www.w3.org/2000/svg">
<g clip-path="url(#clip0_984_76515)">
<path d="M51.4862 8.2207C35.1694 8.2207 21.9727 19.9985 21.9727 34.5609C21.9727 41.1083 24.0808 47.2418 27.9175 52.7733C31.9229 58.5681 37.1932 63.5351 41.2408 69.33C43.2224 72.1521 44.6559 74.7862 46.1737 77.8341C47.27 79.9037 48.1554 83.4784 51.4862 83.4784C54.817 83.4784 55.7024 79.9037 56.7565 77.8341C58.3165 74.7862 59.7078 72.1521 61.6894 69.33C65.737 63.5728 71.0073 58.6057 75.0127 52.7733C78.8916 47.2418 80.9997 41.1083 80.9997 34.5609C80.9997 19.9985 67.8029 8.2207 51.4862 8.2207ZM51.4862 44.9088C45.6678 44.9088 40.9456 40.6944 40.9456 35.5016C40.9456 30.3088 45.6678 26.0944 51.4862 26.0944C57.3046 26.0944 62.0267 30.3088 62.0267 35.5016C62.0267 40.6944 57.3046 44.9088 51.4862 44.9088Z" fill="#FF9910"/>
<ellipse cx="51.4859" cy="36.4422" rx="13.7027" ry="12.2293" fill="#FF9910"/>
<path d="M45.3377 47.3566C46.8322 47.3566 47.5807 46.6496 47.5807 45.2381V29.8595H52.9306C53.4407 29.8595 53.9098 29.9144 54.3405 30.0219C54.8224 30.1432 55.2428 30.3308 55.5966 30.5824C56.0067 30.873 56.3092 31.2413 56.5066 31.6874C56.6783 32.0786 56.7655 32.5156 56.7655 33.0029C56.7655 33.4353 56.6937 33.8357 56.5527 34.1949C56.3887 34.6112 56.1374 34.9613 55.7965 35.245C55.1787 35.7574 54.3764 36.0137 53.392 36.0137H52.7922C52.541 36.0137 52.3205 36.0411 52.1385 36.096C51.9744 36.1463 51.8258 36.2196 51.7001 36.3179C51.6156 36.382 51.5489 36.4712 51.5028 36.5833C51.4336 36.7503 51.3977 36.9768 51.3977 37.2605C51.3977 37.5625 51.4361 37.8233 51.5105 38.0384C51.5745 38.2191 51.6643 38.3701 51.7822 38.4936C51.854 38.5714 51.9796 38.6378 52.1539 38.6881C52.423 38.7682 52.787 38.8094 53.2459 38.8094H54.5225C55.0095 38.8094 55.4581 38.7705 55.8708 38.6927C56.2733 38.6149 56.6501 38.5005 56.9988 38.3518C57.3602 38.1916 57.6986 38.0063 58.0036 37.7936C58.3035 37.59 58.5804 37.3497 58.8342 37.0752C59.0828 36.8121 59.3084 36.5124 59.5083 36.1807C59.7109 35.8466 59.8826 35.4829 60.0262 35.0894C60.1697 34.6959 60.2774 34.2795 60.3517 33.8402C60.4235 33.4056 60.4619 32.948 60.4619 32.4699C60.4619 31.9505 60.4209 31.4586 60.344 30.9988C60.2646 30.5458 60.1466 30.118 59.9954 29.7199C59.857 29.347 59.6698 28.9947 59.4391 28.6675C59.2161 28.3495 58.9572 28.059 58.6624 27.8004C58.3599 27.5351 58.019 27.3017 57.6447 27.1027C57.2653 26.9013 56.8167 26.7206 56.3066 26.5627C55.2889 26.2516 54.0662 26.0938 52.6409 26.0938H45.2044C44.4175 26.0938 43.8638 26.2425 43.5485 26.533C43.2203 26.8396 43.0537 27.3772 43.0537 28.1436V45.3044C43.0537 46.0617 43.2255 46.5947 43.5638 46.9013C43.9022 47.2056 44.4918 47.3566 45.3326 47.3566H45.3377Z" fill="white"/>
</g>
<defs>
<clipPath id="clip0_984_76515">
<rect width="101.189" height="90.309" fill="white" transform="translate(0.891602 0.695312)"/>
</clipPath>
</defs>
</svg>
